<svg width="232" height="37" viewBox="0 0 232 37" fill="none" xmlns="http://www.w3.org/2000/svg">
<path d="M17.496 0L34.992 30.293H0L17.496 0Z" fill="white"/>
<path d="M67.3966 29.7616C66.9287 29.7616 66.5353 29.6021 66.2163 29.2833C65.8973 28.9644 65.7378 28.5711 65.7378 28.1034V4.85751H69.0553V28.1034C69.0553 28.5711 68.8958 28.9644 68.5768 29.2833C68.2578 29.6021 67.8644 29.7616 67.3966 29.7616ZM58.8476 7.9187C58.4011 7.9187 58.0289 7.78052 57.7312 7.50416C57.4547 7.20655 57.3165 6.83453 57.3165 6.38811C57.3165 5.94168 57.4547 5.58029 57.7312 5.30394C58.0289 5.00632 58.4011 4.85751 58.8476 4.85751H75.9136C76.3602 4.85751 76.7217 5.00632 76.9981 5.30394C77.2959 5.58029 77.4447 5.94168 77.4447 6.38811C77.4447 6.83453 77.2959 7.20655 76.9981 7.50416C76.7217 7.78052 76.3602 7.9187 75.9136 7.9187H58.8476Z" fill="white"/>
<path d="M83.274 29.8891C81.7216 29.8891 80.3287 29.5065 79.0952 28.7412C77.8618 27.9546 76.8836 26.9023 76.1605 25.5843C75.4588 24.245 75.1079 22.7357 75.1079 21.0563C75.1079 19.3769 75.4907 17.8676 76.2562 16.5283C77.0431 15.189 78.0957 14.1367 79.4142 13.3714C80.754 12.5849 82.2532 12.1916 83.912 12.1916C85.5707 12.1916 87.0593 12.5849 88.3778 13.3714C89.6963 14.1367 90.7383 15.189 91.5039 16.5283C92.2908 17.8676 92.6842 19.3769 92.6842 21.0563H91.4401C91.4401 22.7357 91.0786 24.245 90.3556 25.5843C89.6538 26.9023 88.6862 27.9546 87.4528 28.7412C86.2193 29.5065 84.8264 29.8891 83.274 29.8891ZM83.912 27.0192C84.9965 27.0192 85.9641 26.7641 86.8148 26.2539C87.6654 25.7225 88.3353 25.0103 88.8244 24.1175C89.3135 23.2034 89.5581 22.183 89.5581 21.0563C89.5581 19.9084 89.3135 18.888 88.8244 17.9951C88.3353 17.081 87.6654 16.3689 86.8148 15.8587C85.9641 15.3272 84.9965 15.0615 83.912 15.0615C82.8487 15.0615 81.8811 15.3272 81.0092 15.8587C80.1585 16.3689 79.478 17.081 78.9676 17.9951C78.4785 18.888 78.234 19.9084 78.234 21.0563C78.234 22.183 78.4785 23.2034 78.9676 24.1175C79.478 25.0103 80.1585 25.7225 81.0092 26.2539C81.8811 26.7641 82.8487 27.0192 83.912 27.0192ZM91.0573 29.7935C90.5895 29.7935 90.1961 29.6446 89.8771 29.347C89.5794 29.0282 89.4305 28.6349 89.4305 28.1672V23.2884L90.0366 19.9084L92.6842 21.0563V28.1672C92.6842 28.6349 92.5247 29.0282 92.2057 29.347C91.908 29.6446 91.5252 29.7935 91.0573 29.7935Z" fill="white"/>
<path d="M105.438 29.8891C103.736 29.8891 102.216 29.5065 100.876 28.7412C99.5575 27.9546 98.5155 26.9023 97.7499 25.5843C97.0056 24.245 96.6334 22.7357 96.6334 21.0563C96.6334 19.3344 97.0056 17.8038 97.7499 16.4645C98.4942 15.1252 99.515 14.0836 100.812 13.3396C102.109 12.5743 103.598 12.1916 105.278 12.1916C106.533 12.1916 107.681 12.4361 108.723 12.925C109.765 13.3927 110.701 14.1049 111.53 15.0615C111.828 15.4016 111.934 15.7524 111.849 16.1138C111.764 16.4751 111.53 16.794 111.147 17.0704C110.85 17.283 110.52 17.3574 110.159 17.2936C109.797 17.2086 109.467 17.0172 109.17 16.7196C108.128 15.6142 106.83 15.0615 105.278 15.0615C104.193 15.0615 103.236 15.3166 102.407 15.8268C101.578 16.3157 100.929 17.0066 100.461 17.8995C99.9934 18.7923 99.7595 19.8446 99.7595 21.0563C99.7595 22.2043 99.9934 23.2246 100.461 24.1175C100.95 25.0103 101.62 25.7225 102.471 26.2539C103.322 26.7641 104.31 27.0192 105.438 27.0192C106.182 27.0192 106.83 26.9342 107.383 26.7641C107.958 26.5728 108.479 26.2858 108.946 25.9032C109.287 25.6268 109.638 25.478 109.999 25.4568C110.361 25.4142 110.68 25.5099 110.956 25.7438C111.318 26.0414 111.52 26.3815 111.562 26.7641C111.605 27.1255 111.477 27.455 111.179 27.7527C109.648 29.177 107.734 29.8891 105.438 29.8891Z" fill="white"/>
<path d="M123.033 29.7616C121.969 29.7616 121.012 29.4958 120.162 28.9644C119.311 28.4117 118.641 27.6676 118.152 26.7323C117.663 25.7969 117.418 24.7446 117.418 23.5754V8.36512C117.418 7.89744 117.567 7.51479 117.865 7.21718C118.163 6.91956 118.545 6.77075 119.013 6.77075C119.481 6.77075 119.864 6.91956 120.162 7.21718C120.459 7.51479 120.608 7.89744 120.608 8.36512V23.5754C120.608 24.4257 120.842 25.1379 121.31 25.7119C121.778 26.2858 122.352 26.5728 123.033 26.5728H124.117C124.5 26.5728 124.819 26.7216 125.074 27.0192C125.351 27.3169 125.489 27.6995 125.489 28.1672C125.489 28.6349 125.308 29.0175 124.946 29.3151C124.606 29.6128 124.16 29.7616 123.607 29.7616H123.033ZM115.951 15.6992C115.504 15.6992 115.143 15.5717 114.866 15.3166C114.59 15.0615 114.452 14.7426 114.452 14.36C114.452 13.9348 114.59 13.5947 114.866 13.3396C115.143 13.0845 115.504 12.9569 115.951 12.9569H123.32C123.766 12.9569 124.128 13.0845 124.404 13.3396C124.681 13.5947 124.819 13.9348 124.819 14.36C124.819 14.7426 124.681 15.0615 124.404 15.3166C124.128 15.5717 123.766 15.6992 123.32 15.6992H115.951Z" fill="white"/>
<path d="M131.434 29.7616C130.966 29.7616 130.572 29.6128 130.253 29.3151C129.956 28.9963 129.807 28.603 129.807 28.1353V13.9454C129.807 13.4565 129.956 13.0632 130.253 12.7656C130.572 12.468 130.966 12.3192 131.434 12.3192C131.923 12.3192 132.316 12.468 132.614 12.7656C132.912 13.0632 133.06 13.4565 133.06 13.9454V28.1353C133.06 28.603 132.912 28.9963 132.614 29.3151C132.316 29.6128 131.923 29.7616 131.434 29.7616ZM131.434 9.48118C130.859 9.48118 130.36 9.27923 129.934 8.87532C129.53 8.45016 129.328 7.95059 129.328 7.37662C129.328 6.80264 129.53 6.3137 129.934 5.9098C130.36 5.48463 130.859 5.27205 131.434 5.27205C132.008 5.27205 132.497 5.48463 132.901 5.9098C133.326 6.3137 133.539 6.80264 133.539 7.37662C133.539 7.95059 133.326 8.45016 132.901 8.87532C132.497 9.27923 132.008 9.48118 131.434 9.48118Z" fill="white"/>
<path d="M139.082 29.7616C138.614 29.7616 138.22 29.6021 137.901 29.2833C137.582 28.9644 137.423 28.5711 137.423 28.1034V6.51566C137.423 6.02672 137.582 5.63344 137.901 5.33582C138.22 5.01695 138.614 4.85751 139.082 4.85751H153.5C153.989 4.85751 154.383 5.00632 154.68 5.30394C154.978 5.58029 155.127 5.95231 155.127 6.41999C155.127 6.86642 154.978 7.22781 154.68 7.50416C154.383 7.78052 153.989 7.9187 153.5 7.9187H140.74V15.6673H149.895C150.385 15.6673 150.778 15.8161 151.076 16.1138C151.373 16.3901 151.522 16.7515 151.522 17.1979C151.522 17.6444 151.373 18.0164 151.076 18.314C150.778 18.5903 150.385 18.7285 149.895 18.7285H140.74V28.1034C140.74 28.5711 140.581 28.9644 140.262 29.2833C139.943 29.6021 139.55 29.7616 139.082 29.7616Z" fill="white"/>
<path d="M166.961 29.8891C165.239 29.8891 163.718 29.5171 162.4 28.7731C161.081 28.0078 160.039 26.9661 159.274 25.6481C158.529 24.3088 158.157 22.7782 158.157 21.0563C158.157 19.3131 158.529 17.7825 159.274 16.4645C160.039 15.1252 161.081 14.0836 162.4 13.3396C163.718 12.5743 165.239 12.1916 166.961 12.1916C168.663 12.1916 170.172 12.5743 171.491 13.3396C172.809 14.0836 173.841 15.1252 174.585 16.4645C175.351 17.7825 175.734 19.3131 175.734 21.0563C175.734 22.7782 175.361 24.3088 174.617 25.6481C173.873 26.9661 172.841 28.0078 171.523 28.7731C170.204 29.5171 168.684 29.8891 166.961 29.8891ZM166.961 27.0192C168.067 27.0192 169.045 26.7641 169.896 26.2539C170.747 25.7437 171.406 25.0422 171.874 24.1494C172.363 23.2565 172.607 22.2255 172.607 21.0563C172.607 19.8871 172.363 18.8561 171.874 17.9632C171.406 17.0491 170.747 16.337 169.896 15.8268C169.045 15.3166 168.067 15.0615 166.961 15.0615C165.855 15.0615 164.877 15.3166 164.027 15.8268C163.176 16.337 162.506 17.0491 162.017 17.9632C161.528 18.8561 161.283 19.8871 161.283 21.0563C161.283 22.2255 161.528 23.2565 162.017 24.1494C162.506 25.0422 163.176 25.7437 164.027 26.2539C164.877 26.7641 165.855 27.0192 166.961 27.0192Z" fill="white"/>
<path d="M182.139 18.8561C182.139 17.5806 182.447 16.4433 183.064 15.4441C183.702 14.4237 184.553 13.6159 185.616 13.0207C186.679 12.4255 187.849 12.1278 189.125 12.1278C190.401 12.1278 191.347 12.3404 191.964 12.7656C192.602 13.1695 192.846 13.6584 192.698 14.2324C192.634 14.53 192.506 14.7639 192.315 14.9339C192.145 15.0827 191.943 15.1784 191.709 15.2209C191.475 15.2634 191.22 15.2528 190.943 15.189C189.582 14.9127 188.359 14.8914 187.275 15.1253C186.19 15.3591 185.329 15.7949 184.691 16.4326C184.074 17.0704 183.766 17.8782 183.766 18.8561H182.139ZM182.171 29.7616C181.66 29.7616 181.267 29.634 180.991 29.3789C180.714 29.1026 180.576 28.6986 180.576 28.1672V13.9135C180.576 13.4033 180.714 13.0101 180.991 12.7337C181.267 12.4573 181.66 12.3192 182.171 12.3192C182.703 12.3192 183.096 12.4573 183.351 12.7337C183.628 12.9888 183.766 13.3821 183.766 13.9135V28.1672C183.766 28.6774 183.628 29.0707 183.351 29.347C183.096 29.6234 182.703 29.7616 182.171 29.7616Z" fill="white"/>
<path d="M202.085 29.8891C200.49 29.8891 199.076 29.5171 197.842 28.7731C196.63 28.0078 195.673 26.9661 194.972 25.6481C194.27 24.3088 193.919 22.7782 193.919 21.0563C193.919 19.3131 194.291 17.7825 195.035 16.4645C195.801 15.1252 196.843 14.0836 198.161 13.3396C199.48 12.5743 201 12.1916 202.723 12.1916C204.424 12.1916 205.934 12.5743 207.253 13.3396C208.571 14.0836 209.603 15.1252 210.347 16.4645C211.112 17.7825 211.495 19.3131 211.495 21.0563H209.613C209.613 22.7782 209.284 24.3088 208.624 25.6481C207.986 26.9661 207.104 28.0078 205.977 28.7731C204.85 29.5171 203.552 29.8891 202.085 29.8891ZM202.659 37C201.149 37 199.735 36.7024 198.417 36.1072C197.098 35.5119 195.982 34.6403 195.067 33.4924C194.791 33.131 194.684 32.759 194.748 32.3763C194.833 31.9937 195.046 31.6854 195.386 31.4516C195.769 31.1965 196.162 31.1115 196.567 31.1965C196.992 31.2815 197.332 31.4941 197.587 31.8342C198.161 32.557 198.885 33.1204 199.756 33.5243C200.628 33.9282 201.617 34.1301 202.723 34.1301C203.744 34.1301 204.679 33.8857 205.53 33.3967C206.402 32.9078 207.093 32.185 207.604 31.2284C208.114 30.2718 208.369 29.1026 208.369 27.7208V23.1928L209.422 20.3867L211.495 21.0563V27.944C211.495 29.6234 211.123 31.1434 210.379 32.5039C209.634 33.8857 208.592 34.9805 207.253 35.7883C205.934 36.5961 204.403 37 202.659 37ZM202.723 27.0192C203.829 27.0192 204.807 26.7641 205.658 26.2539C206.508 25.7437 207.168 25.0422 207.635 24.1494C208.125 23.2565 208.369 22.2255 208.369 21.0563C208.369 19.8871 208.125 18.8561 207.635 17.9632C207.168 17.0491 206.508 16.337 205.658 15.8268C204.807 15.3166 203.829 15.0615 202.723 15.0615C201.617 15.0615 200.639 15.3166 199.788 15.8268C198.938 16.337 198.268 17.0491 197.779 17.9632C197.29 18.8561 197.045 19.8871 197.045 21.0563C197.045 22.2255 197.29 23.2565 197.779 24.1494C198.268 25.0422 198.938 25.7437 199.788 26.2539C200.639 26.7641 201.617 27.0192 202.723 27.0192Z" fill="white"/>
<path d="M224.536 29.8891C222.771 29.8891 221.197 29.5171 219.815 28.7731C218.454 28.0078 217.38 26.9661 216.593 25.6481C215.827 24.3088 215.444 22.7782 215.444 21.0563C215.444 19.3131 215.806 17.7825 216.529 16.4645C217.273 15.1252 218.294 14.0836 219.591 13.3396C220.889 12.5743 222.377 12.1916 224.057 12.1916C225.716 12.1916 227.141 12.5636 228.332 13.3077C229.522 14.0304 230.426 15.0402 231.043 16.337C231.681 17.6125 232 19.0899 232 20.7693C232 21.1732 231.862 21.5134 231.585 21.7897C231.309 22.0448 230.958 22.1724 230.533 22.1724H217.677V19.6214H230.437L229.129 20.5142C229.108 19.4513 228.895 18.5053 228.491 17.6762C228.087 16.8259 227.513 16.1563 226.769 15.6673C226.024 15.1784 225.12 14.9339 224.057 14.9339C222.845 14.9339 221.803 15.1997 220.931 15.7311C220.08 16.2626 219.432 16.996 218.985 17.9313C218.539 18.8454 218.315 19.8871 218.315 21.0563C218.315 22.2255 218.581 23.2672 219.113 24.1813C219.644 25.0954 220.378 25.8182 221.314 26.3496C222.25 26.8811 223.323 27.1468 224.536 27.1468C225.195 27.1468 225.865 27.0299 226.545 26.796C227.247 26.5409 227.811 26.254 228.236 25.9351C228.555 25.7012 228.895 25.5843 229.257 25.5843C229.639 25.5631 229.969 25.6693 230.246 25.9032C230.607 26.2221 230.798 26.5728 230.82 26.9555C230.841 27.3381 230.671 27.6676 230.309 27.944C229.586 28.518 228.682 28.9856 227.598 29.347C226.535 29.7084 225.514 29.8891 224.536 29.8891Z" fill="white"/>
</svg>
